<svg  viewBox="0 0 16 16" fill="none" xmlns="http://www.w3.org/2000/svg">
<path d="M4.59934 10.266H3.99908C3.69926 10.2661 3.4052 10.3436 3.14556 10.4906L3.03684 10.5577C2.78745 10.7243 2.58582 10.9525 2.45155 11.2191L2.39817 11.3356C2.26705 11.6523 2.23303 12.0009 2.29986 12.3369L2.32916 12.4619C2.40886 12.7494 2.56191 13.0124 2.77382 13.2243L2.86822 13.3116C3.09416 13.5063 3.36725 13.6397 3.66119 13.6983L3.78814 13.7191C4.0842 13.7555 4.38554 13.7147 4.66249 13.6L4.77903 13.5466C5.04554 13.4123 5.27385 13.2113 5.44048 12.9619L5.50754 12.8526C5.65453 12.5929 5.73211 12.2989 5.73215 11.9991V11.3988H6.93202V11.9991C6.93198 12.5066 6.80063 13.0042 6.55181 13.4437L6.43788 13.6286C6.15586 14.0506 5.76983 14.391 5.31874 14.6182L5.12212 14.7087C4.65337 14.9028 4.14277 14.9715 3.64166 14.9099L3.42746 14.8754C2.92967 14.7763 2.46693 14.5502 2.08436 14.2204L1.92551 14.0726C1.56672 13.7138 1.30778 13.2689 1.17291 12.7823L1.12278 12.5713C1.00965 12.0025 1.06758 11.4125 1.28944 10.8767L1.37994 10.6794C1.60719 10.2282 1.94811 9.84231 2.37017 9.56026L2.55442 9.44632C2.99393 9.19749 3.49159 9.06554 3.99908 9.06546H4.59934V10.266Z" fill="red" fill-opacity="0.6"/>
<path d="M12.2165 9.07393C12.7203 9.11121 13.2072 9.27829 13.6293 9.56026L13.8051 9.68721C14.2032 9.9981 14.5157 10.4077 14.71 10.8767L14.7855 11.0798C14.9212 11.491 14.9641 11.9274 14.9112 12.3571L14.8767 12.5713C14.7776 13.069 14.5514 13.5313 14.2217 13.9138L14.0739 14.0726C13.7151 14.4315 13.2702 14.6903 12.7836 14.8252L12.572 14.8754C12.0744 14.9743 11.5606 14.9424 11.0811 14.7842L10.8773 14.7087C10.4087 14.5144 9.99932 14.2023 9.68853 13.8044L9.56158 13.6286C9.23941 13.1464 9.06683 12.579 9.06678 11.9991V11.3988H10.2673V11.9991C10.2674 12.3417 10.3687 12.677 10.559 12.9619L10.6345 13.0655C10.8181 13.3006 11.06 13.4852 11.337 13.6L11.4568 13.6449C11.7402 13.7384 12.0442 13.7574 12.3383 13.6989L12.4626 13.669C12.7503 13.5893 13.0136 13.4364 13.2256 13.2243L13.3129 13.1306C13.5077 12.9045 13.6411 12.6311 13.6996 12.3369L13.7198 12.2106C13.7511 11.9565 13.7258 11.6986 13.6456 11.4554L13.6013 11.3356C13.4865 11.0587 13.3019 10.8168 13.0668 10.6332L12.9626 10.5577C12.7133 10.3912 12.4255 10.2926 12.128 10.2705L11.9997 10.266H11.4001V9.06546H11.9997L12.2165 9.07393Z" fill="red" fill-opacity="0.6"/>
<path d="M12.4411 4.40986L9.68983 7.16182V8.8376L12.4411 11.5896L11.5928 12.4379L8.84478 9.68981H7.16184L4.41379 12.4379L3.56548 11.5896L6.31223 8.84216V7.15661L6.08371 6.92809L3.56548 4.40986L4.41379 3.56156L6.93202 6.07979L7.16444 6.31156H8.84218L9.0746 6.07979L11.5928 3.56156L12.4411 4.40986Z" fill="red" fill-opacity="0.6"/>
<path d="M3.64166 1.0889C4.14275 1.02732 4.65274 1.096 5.12147 1.29007L5.31874 1.38057C5.76997 1.60785 6.15584 1.94869 6.43788 2.3708C6.7601 2.85312 6.93202 3.42033 6.93202 4.00036V4.59997H5.73215V4.00036C5.73215 3.6577 5.63076 3.32238 5.44048 3.03747C5.27383 2.78805 5.0456 2.58647 4.77903 2.45218L4.66249 2.3988C4.38554 2.28411 4.0842 2.24394 3.78814 2.28031L3.66119 2.30049C3.36732 2.35902 3.09412 2.49255 2.86822 2.68721L2.77382 2.77445C2.56184 2.98653 2.40881 3.24986 2.32916 3.53747L2.29986 3.66182C2.2331 3.99779 2.26713 4.3466 2.39817 4.66312L2.45155 4.77966C2.58583 5.04625 2.78744 5.27445 3.03684 5.44111L3.14556 5.50817C3.40519 5.65519 3.69926 5.73334 3.99908 5.73343H4.59934V6.9333H3.99908C3.49159 6.93321 2.99392 6.80129 2.55442 6.55244L2.37017 6.43916C1.94826 6.15722 1.6072 5.77102 1.37994 5.32002L1.28944 5.12276C1.06752 4.58697 1.00974 3.99687 1.12278 3.42809L1.17291 3.21716C1.30774 2.73036 1.56667 2.28509 1.92551 1.92614L2.08436 1.77835C2.46688 1.44862 2.92975 1.22246 3.42746 1.12341L3.64166 1.0889Z" fill="red" fill-opacity="0.6"/>
<path d="M11.0811 1.2139C11.5606 1.05571 12.0744 1.02385 12.572 1.12276L12.7836 1.17289C13.2702 1.30778 13.7152 1.56672 14.0739 1.92549L14.2217 2.08434C14.5515 2.4669 14.7776 2.92968 14.8767 3.42744L14.9112 3.64164C14.964 4.07118 14.9211 4.50731 14.7855 4.91833L14.71 5.1221C14.5157 5.59105 14.2032 6 13.8051 6.31091L13.6293 6.43851C13.147 6.76066 12.5797 6.93265 11.9997 6.93265H11.4001V5.73278H11.9997C12.3424 5.73278 12.6777 5.63081 12.9626 5.44046L13.0668 5.36559C13.302 5.18187 13.4865 4.93959 13.6013 4.66247L13.6456 4.54268C13.7257 4.29974 13.751 4.04202 13.7198 3.78812L13.6996 3.66117C13.6411 3.36727 13.5075 3.09411 13.3129 2.8682L13.2256 2.7738C13.0136 2.56178 12.7502 2.4088 12.4626 2.32914L12.3383 2.29984C12.0441 2.24137 11.7402 2.26029 11.4568 2.35387L11.337 2.39815C11.0204 2.52932 10.7494 2.75184 10.559 3.03682C10.3687 3.32172 10.2673 3.65704 10.2673 3.99971V4.59932H9.06678V3.99971C9.06681 3.41968 9.23933 2.85246 9.56158 2.37015C9.88379 1.88792 10.3415 1.51144 10.8773 1.28942L11.0811 1.2139Z" fill="red" fill-opacity="0.6"/>
</svg>
